# xmcd
#
# Track frame offsets: 
#        150
#        13054
#        26054
#        40097
#        52231
#        66123
#        78645
#        92040
#        104509
#        117244
#        131312
#        145551
#        157556
#        171084
#        184812
#        197077
#        209730
#        222704
#        236743
#        251790
#        261710
#
# Disc length: 3620 seconds
#
# Revision: 2
# Processed by: cddbd v1.5.1PL2 Copyright (c) Steve Scherf et al.
# Submitted via: ExactAudioCopy v0.95b1
#
DISCID=3e0e2215
DTITLE=The Sons Of The Pioneers - Ultimate Collection
DYEAR=2002
DGENRE=Country
TTITLE0=Way Out There
TTITLE1=Tumbling Tumbleweeds
TTITLE2=There's A Roundup In The Sky
TTITLE3=Empty Saddles
TTITLE4=Blue Prairie
TTITLE5=One More Ride
TTITLE6=So Long To The Red River Valley
TTITLE7=Cool Water
TTITLE8=I'm An Old Cowhand (From The Rio Grande)
TTITLE9=The Hills Of Old Wyomin'
TTITLE10=Blue Bonnet Girl
TTITLE11=Ride, Ranger, Ride
TTITLE12=Echoes From The Hills
TTITLE13=I Follow The Stream
TTITLE14=My Saddle Pals And I
TTITLE15=Song Of The Bandit
TTITLE16=I Wonder If She Waits Fro Me Tonight
TTITLE17=Chant Of The Wanderer
TTITLE18=Riders In The Sky
TTITLE19=The Lillies Grow High
TTITLE20=The River Of No Return
EXTD=YEAR: 2002
EXTT0=
EXTT1=
EXTT2=
EXTT3=
EXTT4=
EXTT5=
EXTT6=
EXTT7=
EXTT8=
EXTT9=
EXTT10=
EXTT11=
EXTT12=
EXTT13=
EXTT14=
EXTT15=
EXTT16=
EXTT17=
EXTT18=
EXTT19=
EXTT20=
PLAYORDER=
